<?xml version="1.0" encoding="utf-8"?>
<!-- Generator: Adobe Illustrator 14.0.0, SVG Export Plug-In . SVG Version: 6.00 Build 43363)  -->
<!DOCTYPE svg PUBLIC "-//W3C//DTD SVG 1.1//EN" "http://www.w3.org/Graphics/SVG/1.1/DTD/svg11.dtd">
<svg version="1.1" id="Layer_1" xmlns="http://www.w3.org/2000/svg" xmlns:xlink="http://www.w3.org/1999/xlink" x="0px" y="0px"
	 width="100px" height="100px" viewBox="0 0 100 100" enable-background="new 0 0 100 100" xml:space="preserve">
<path fill="#52CAF5" stroke="#000000" stroke-width="2" d="M99.159,99.091V40.636c0,0-8.201-8.977-13.676-8.977
	s-2.234,5.227-17.207,5.227c-14.969,0-4.578-13.182-8.266-13.182S43.028,37.909,32.861,37.909s3.464-7.273-5.586-7.273
	c-9.049,0-26.434,8.978-26.434,8.978v59.477H99.159z"/>
<path fill="#1F7793" stroke="#000000" stroke-width="2" d="M99.159,58.591c-6.363,3.637-10.568-7.841-15.568-9.545
	s4.772,6.023-14.432,6.818s1.704-12.386-6.818-10.795s-6.818,9.319-15.455,8.466s2.955-7.557-3.522-6.08s-11.478,9.432-11.478,9.432
	s-10.795,2.386-13.295-5.342s-17.75,8.068-17.75,8.068v39.478h98.318V58.591z"/>
<path fill="#004B60" stroke="#000000" stroke-width="2" d="M0.841,74.272c0,0,13.773-13.818,16.273-12.875
	s-1.591,11.196,3.636,10.615s13.864-7.286,15.455-6.149s-8.068,12.045,2.841,10.909S58.705,60.086,59.5,62.228
	s-2.16,7.727,2.954,7.954s14.206-7.613,16.933-6.25s-4.433,8.636,3.977,9.432s15.796-4.278,15.796-4.278v30.006H0.841V74.272z"/>
</svg>
