<?xml version="1.0" encoding="utf-8"?>
<!-- Generator: Adobe Illustrator 14.0.0, SVG Export Plug-In . SVG Version: 6.00 Build 43363)  -->
<!DOCTYPE svg PUBLIC "-//W3C//DTD SVG 1.1//EN" "http://www.w3.org/Graphics/SVG/1.1/DTD/svg11.dtd">
<svg version="1.1" id="Layer_1" xmlns="http://www.w3.org/2000/svg" xmlns:xlink="http://www.w3.org/1999/xlink" x="0px" y="0px"
	 width="100px" height="100px" viewBox="0 0 100 100" enable-background="new 0 0 100 100" xml:space="preserve">
<g id="XMLID_1_">
	<g>
		<polygon fill="#333334" points="43.19,26.13 43.19,72.98 42.93,72.98 17.73,60.09 17.73,59.9 17.73,39.52 42.93,26.13 		"/>
		<polygon fill="#333334" points="17.73,39.52 17.73,59.9 3.67,59.9 3.67,39.71 17.48,39.71 17.48,39.65 		"/>
	</g>
	<g>
		<polyline fill="none" stroke="#000000" points="43.19,25.69 43.19,26.13 43.19,72.98 43.19,73.42 		"/>
		<polyline fill="none" stroke="#000000" points="17.48,39.65 17.73,39.52 42.93,26.13 		"/>
		<polyline fill="none" stroke="#000000" points="17.48,59.96 17.73,60.09 42.93,72.98 		"/>
		<polyline fill="none" stroke="#000000" points="17.73,39.22 17.73,39.52 17.73,59.9 17.73,60.09 17.73,60.4 		"/>
		<polyline fill="none" stroke="#000000" points="3.67,39.22 3.67,39.71 3.67,59.9 3.67,60.4 		"/>
		<polyline fill="none" stroke="#000000" points="17.48,39.71 3.67,39.71 3.42,39.71 		"/>
		<line fill="none" stroke="#000000" x1="3.67" y1="59.9" x2="17.73" y2="59.9"/>
	</g>
</g>
<path fill="none" stroke="#000000" stroke-width="4" d="M51.5,39.714c0,0,4.625,2.403,4.625,9.845S51.5,59.896,51.5,59.896"/>
<path fill="none" stroke="#000000" stroke-width="4" d="M62,32.893c0,0,7.625,2.6,7.625,16.666S62,66.469,62,66.469"/>
<path fill="none" stroke="#000000" stroke-width="4" d="M75.5,26.131c0,0,9.125,5.736,9.125,23.427S75.5,72.98,75.5,72.98"/>
</svg>
