<?xml version="1.0" encoding="utf-8"?>
<!-- Generator: Adobe Illustrator 14.0.0, SVG Export Plug-In . SVG Version: 6.00 Build 43363)  -->
<!DOCTYPE svg PUBLIC "-//W3C//DTD SVG 1.1//EN" "http://www.w3.org/Graphics/SVG/1.1/DTD/svg11.dtd">
<svg version="1.1" id="Layer_1" xmlns="http://www.w3.org/2000/svg" xmlns:xlink="http://www.w3.org/1999/xlink" x="0px" y="0px"
	 width="100px" height="100px" viewBox="0 0 100 100" enable-background="new 0 0 100 100" xml:space="preserve">
<g id="XMLID_1_">
	<g>
		<rect x="17.361" y="46.882" fill="#4F4F51" width="55.11" height="33.07"/>
	</g>
	<g>
		<rect x="17.361" y="46.882" fill="none" stroke="#000000" stroke-width="2" width="55.11" height="33.07"/>
	</g>
</g>
<g id="XMLID_2_">
	<g>
		<path fill="#4F4F51" d="M63.973,11.212c9.67,0,17.5,7.84,17.5,17.5c0,9.67-7.83,17.5-17.5,17.5c-9.66,0-17.5-7.83-17.5-17.5
			C46.472,19.053,54.313,11.212,63.973,11.212z"/>
		<path fill="#4F4F51" d="M27.932,11.212c9.66,0,17.5,7.84,17.5,17.5c0,9.67-7.84,17.5-17.5,17.5c-9.67,0-17.5-7.83-17.5-17.5
			C10.432,19.053,18.262,11.212,27.932,11.212z"/>
	</g>
	<g>
		<path fill="none" stroke="#000000" stroke-width="2" d="M45.432,28.712c0,9.67-7.84,17.5-17.5,17.5c-9.67,0-17.5-7.83-17.5-17.5
			c0-9.66,7.83-17.5,17.5-17.5C37.591,11.212,45.432,19.053,45.432,28.712z"/>
		<path fill="none" stroke="#000000" stroke-width="2" d="M81.473,28.712c0,9.67-7.83,17.5-17.5,17.5c-9.66,0-17.5-7.83-17.5-17.5
			c0-9.66,7.84-17.5,17.5-17.5C73.643,11.212,81.473,19.053,81.473,28.712z"/>
	</g>
</g>
<polygon fill="#4F4F51" stroke="#000000" stroke-width="2" points="72.477,53.262 89.566,46.887 89.566,79.955 72.477,72.58 
	72.477,63.417 "/>
<rect x="23.75" y="52.5" fill="#282829" stroke="#000000" width="22.722" height="6"/>
<circle fill="#4D4D4F" stroke="#000000" cx="27.932" cy="28.712" r="7.5"/>
<circle fill="#4D4D4F" stroke="#000000" cx="63.973" cy="28.712" r="7.5"/>
<circle fill="#FF8500" stroke="#000000" stroke-width="3" cx="46.473" cy="79.952" r="14"/>
<path fill="#FF8500" stroke="#000000" stroke-width="3" d="M46.473,58.5c9.694,0,17.5-44.288,17.5-44.288s-0.861-10.045-17.5-10.045
	c-16.639,0-18.541,10.045-18.541,10.045S36.778,58.5,46.473,58.5z"/>
</svg>
