<?xml version="1.0" encoding="utf-8"?>
<!-- Generator: Adobe Illustrator 14.0.0, SVG Export Plug-In . SVG Version: 6.00 Build 43363)  -->
<!DOCTYPE svg PUBLIC "-//W3C//DTD SVG 1.1//EN" "http://www.w3.org/Graphics/SVG/1.1/DTD/svg11.dtd">
<svg version="1.1" id="Layer_1" xmlns="http://www.w3.org/2000/svg" xmlns:xlink="http://www.w3.org/1999/xlink" x="0px" y="0px"
	 width="160px" height="160px" viewBox="0 0 160 160" enable-background="new 0 0 160 160" xml:space="preserve">
<polygon fill="#A6DEF5" stroke="#000000" stroke-width="2" points="41.423,11.57 2.791,78.419 41.366,145.295 118.576,145.328 
	157.207,78.483 118.633,11.603 "/>
<polygon fill="#8BB1C3" points="94.238,103.049 65.813,103.082 51.575,78.479 65.763,53.848 94.188,53.818 108.426,78.421 "/>
<line fill="#8BB1C3" stroke="#8BB1C3" stroke-width="2" x1="106.955" y1="78.468" x2="155.736" y2="78.431"/>
<line fill="none" stroke="#8BB1C3" stroke-width="2" x1="93.867" y1="55.046" x2="118.227" y2="12.782"/>
<line fill="none" stroke="#8BB1C3" stroke-width="2" x1="66.606" y1="55.028" x2="42.182" y2="12.8"/>
<line fill="none" stroke="#8BB1C3" stroke-width="2" x1="52.625" y1="78.362" x2="3.841" y2="78.4"/>
<line fill="none" stroke="#8BB1C3" stroke-width="2" x1="66.575" y1="101.717" x2="42.214" y2="143.98"/>
<line fill="none" stroke="#8BB1C3" stroke-width="2" x1="93.221" y1="101.734" x2="117.645" y2="143.963"/>
<polygon fill="none" stroke="#000000" stroke-width="3" points="41.365,11.604 118.588,11.577 157.223,78.441 118.633,145.332 
	41.411,145.357 2.776,78.495 "/>
</svg>
