<?xml version="1.0" encoding="utf-8"?>
<!-- Generator: Adobe Illustrator 14.0.0, SVG Export Plug-In . SVG Version: 6.00 Build 43363)  -->
<!DOCTYPE svg PUBLIC "-//W3C//DTD SVG 1.1//EN" "http://www.w3.org/Graphics/SVG/1.1/DTD/svg11.dtd">
<svg version="1.1" id="Layer_1" xmlns="http://www.w3.org/2000/svg" xmlns:xlink="http://www.w3.org/1999/xlink" x="0px" y="0px"
	 width="100px" height="100px" viewBox="0 0 100 100" enable-background="new 0 0 100 100" xml:space="preserve">
<polygon fill="#F47721" stroke="#000000" points="33.938,60.938 38.179,44.462 27.01,31.63 43.989,30.571 52.743,15.984 
	58.996,31.805 75.574,35.622 62.461,46.459 63.952,63.405 49.594,54.281 "/>
<polygon fill="#F7911E" stroke="#000000" points="38.975,20.762 51.301,27.236 63.634,20.775 61.273,34.471 71.242,44.177 
	57.456,46.168 51.285,58.627 45.126,46.162 31.342,44.156 41.323,34.46 "/>
<polygon fill="#FFCA06" stroke="#000000" points="62.567,53.915 52.64,49.035 43.621,54.105 44.467,43.551 36.12,36.165 
	46.572,34.52 50.433,24.884 56.045,34.423 66.779,35.854 59.797,43.395 "/>
<polygon fill="#4D4D4F" stroke="#000000" stroke-width="0.5" points="6.518,67.217 15.444,54.424 30.415,50.038 "/>
<polygon fill="#4D4D4F" stroke="#000000" stroke-width="0.5" points="27.01,79.516 26.867,85.414 21.632,88.136 "/>
<polygon fill="#4D4D4F" stroke="#000000" stroke-width="0.5" points="75.574,30.183 85.957,23.902 98.048,24.925 "/>
<polygon fill="#4D4D4F" stroke="#000000" stroke-width="0.5" points="65.099,14.491 68.901,6.703 75.702,1.328 "/>
<polygon fill="#4D4D4F" stroke="#000000" stroke-width="0.5" points="19.375,10.432 27.666,13.879 31.877,21.809 "/>
<polygon fill="#4D4D4F" stroke="#000000" stroke-width="0.5" points="43.926,85.832 43.569,75.733 48.097,66.701 "/>
<polygon fill="#4D4D4F" stroke="#000000" stroke-width="0.5" points="75.702,52.535 82.808,53.144 87.367,58.627 "/>
<polygon fill="#4D4D4F" stroke="#000000" stroke-width="0.5" points="65.494,69.326 75.943,73.889 81.299,83.955 "/>
</svg>
